<svg width="16" height="16" viewBox="0 0 16 16" fill="none" xmlns="http://www.w3.org/2000/svg">
<mask id="mask0_198_1967" style="mask-type:alpha" maskUnits="userSpaceOnUse" x="0" y="0" width="16" height="16">
<rect width="15.5964" height="15.5964" fill="#D9D9D9"/>
</mask>
<g mask="url(#mask0_198_1967)">
<path d="M7.79817 14.2968C6.89921 14.2968 6.05441 14.1262 5.26376 13.785C4.47311 13.4439 3.78535 12.9808 3.20049 12.396C2.61563 11.8111 2.15261 11.1234 1.81144 10.3327C1.47027 9.54205 1.29968 8.69725 1.29968 7.79829C1.29968 6.89934 1.47027 6.05453 1.81144 5.26388C2.15261 4.47323 2.61563 3.78548 3.20049 3.20061C3.78535 2.61575 4.47311 2.15273 5.26376 1.81156C6.05441 1.47039 6.89921 1.2998 7.79817 1.2998C8.69713 1.2998 9.54193 1.47039 10.3326 1.81156C11.1232 2.15273 11.811 2.61575 12.3959 3.20061C12.9807 3.78548 13.4437 4.47323 13.7849 5.26388C14.1261 6.05453 14.2967 6.89934 14.2967 7.79829C14.2967 8.69725 14.1261 9.54205 13.7849 10.3327C13.4437 11.1234 12.9807 11.8111 12.3959 12.396C11.811 12.9808 11.1232 13.4439 10.3326 13.785C9.54193 14.1262 8.69713 14.2968 7.79817 14.2968ZM7.79817 11.3725C8.28556 10.8851 8.71879 10.3814 9.09787 9.86156C9.42279 9.4175 9.72064 8.93011 9.99141 8.3994C10.2622 7.86869 10.3976 7.3434 10.3976 6.82352C10.3976 6.10869 10.143 5.49675 9.63399 4.9877C9.12495 4.47865 8.513 4.22412 7.79817 4.22412C7.08334 4.22412 6.4714 4.47865 5.96235 4.9877C5.4533 5.49675 5.19878 6.10869 5.19878 6.82352C5.19878 7.3434 5.33416 7.86869 5.60493 8.3994C5.8757 8.93011 6.17355 9.4175 6.49847 9.86156C6.87755 10.3814 7.31078 10.8851 7.79817 11.3725ZM7.79817 7.79829C7.5274 7.79829 7.29725 7.70352 7.10771 7.51398C6.91817 7.32444 6.8234 7.09429 6.8234 6.82352C6.8234 6.55275 6.91817 6.32259 7.10771 6.13306C7.29725 5.94352 7.5274 5.84875 7.79817 5.84875C8.06894 5.84875 8.2991 5.94352 8.48864 6.13306C8.67817 6.32259 8.77294 6.55275 8.77294 6.82352C8.77294 7.09429 8.67817 7.32444 8.48864 7.51398C8.2991 7.70352 8.06894 7.79829 7.79817 7.79829Z" fill="#CCCCCC"/>
</g>
</svg>
