<svg viewBox="0 0 24 24" fill="none" xmlns="http://www.w3.org/2000/svg">
<path d="M12 24C5.3724 24 0 18.6276 0 12C0 5.3724 5.3724 0 12 0C18.6276 0 24 5.3736 24 12C24 18.6264 18.6276 24 12 24ZM12 6C11.6817 6 11.3765 6.12643 11.1515 6.35147C10.9264 6.57652 10.8 6.88174 10.8 7.2V13.2C10.8 13.5183 10.9264 13.8235 11.1515 14.0485C11.3765 14.2736 11.6817 14.4 12 14.4C12.3183 14.4 12.6235 14.2736 12.8485 14.0485C13.0736 13.8235 13.2 13.5183 13.2 13.2V7.2C13.2 6.88174 13.0736 6.57652 12.8485 6.35147C12.6235 6.12643 12.3183 6 12 6ZM12 18C12.3183 18 12.6235 17.8736 12.8485 17.6485C13.0736 17.4235 13.2 17.1183 13.2 16.8C13.2 16.4817 13.0736 16.1765 12.8485 15.9515C12.6235 15.7264 12.3183 15.6 12 15.6C11.6817 15.6 11.3765 15.7264 11.1515 15.9515C10.9264 16.1765 10.8 16.4817 10.8 16.8C10.8 17.1183 10.9264 17.4235 11.1515 17.6485C11.3765 17.8736 11.6817 18 12 18Z" fill="currentColor"/>
</svg>
