<svg viewBox="0 0 17 19" fill="none" xmlns="http://www.w3.org/2000/svg">
<path d="M1.66667 18.3333C1.20833 18.3333 0.815972 18.1701 0.489583 17.8438C0.163194 17.5174 0 17.125 0 16.6667C0 16.2083 0.163194 15.816 0.489583 15.4896C0.815972 15.1632 1.20833 15 1.66667 15H15C15.4583 15 15.8507 15.1632 16.1771 15.4896C16.5035 15.816 16.6667 16.2083 16.6667 16.6667C16.6667 17.125 16.5035 17.5174 16.1771 17.8438C15.8507 18.1701 15.4583 18.3333 15 18.3333H1.66667ZM1.66667 12.5V10.1458C1.66667 10.0347 1.6875 9.92708 1.72917 9.82292C1.77083 9.71875 1.83333 9.625 1.91667 9.54167L11 0.479167C11.1528 0.326389 11.3299 0.208333 11.5312 0.125C11.7326 0.0416667 11.9444 0 12.1667 0C12.3889 0 12.6042 0.0416667 12.8125 0.125C13.0208 0.208333 13.2083 0.333333 13.375 0.5L14.5208 1.66667C14.6875 1.81944 14.809 2 14.8854 2.20833C14.9618 2.41667 15 2.63194 15 2.85417C15 3.0625 14.9618 3.26736 14.8854 3.46875C14.809 3.67014 14.6875 3.85417 14.5208 4.02083L5.45833 13.0833C5.375 13.1667 5.28125 13.2292 5.17708 13.2708C5.07292 13.3125 4.96528 13.3333 4.85417 13.3333H2.5C2.26389 13.3333 2.06597 13.2535 1.90625 13.0938C1.74653 12.934 1.66667 12.7361 1.66667 12.5ZM12.1667 4L13.3333 2.83333L12.1667 1.66667L11 2.83333L12.1667 4Z" fill="currentColor"/>
</svg>
