<svg viewBox="0 0 40 37" fill="none" xmlns="http://www.w3.org/2000/svg">
<path d="M19.9602 0C8.94016 0 0 6.94571 0 15.515C0 21.0281 3.7054 25.8554 9.2635 28.6163L7.37585 35.5273C7.30593 35.7357 7.35837 35.9614 7.51567 36.1177C7.62928 36.2219 7.76911 36.2826 7.92641 36.2826C8.04876 36.2826 8.17111 36.2306 8.27598 36.1524L16.3684 30.7782C17.5395 30.9431 18.7367 31.0386 19.9602 31.0386C30.9803 31.0386 39.9205 24.0929 39.9205 15.515C39.9205 6.94571 30.9803 0 19.9602 0ZM9.29846 20.4291C9.29846 20.785 9.19359 21.0715 8.98385 21.2799C8.78285 21.497 8.49446 21.6012 8.14489 21.6012C7.8565 21.6012 7.6118 21.523 7.4108 21.3667C7.2098 21.2105 7.07872 20.9934 7.02628 20.7243C7.00006 20.6288 6.99132 20.5333 7.00006 20.4291L7.0088 13.0579H4.83275C4.53562 13.0579 4.27345 12.9885 4.05497 12.8582C3.83649 12.728 3.7054 12.537 3.65297 12.2852C3.64423 12.2158 3.62675 12.1463 3.61801 12.0682C3.61801 11.7556 3.73162 11.5125 3.95884 11.3389C4.18606 11.1652 4.46571 11.0784 4.81527 11.0784H11.457C11.7542 11.0784 12.0163 11.1479 12.2261 11.2781C12.4446 11.4083 12.5756 11.5993 12.6281 11.8511C12.6368 11.9206 12.6456 11.99 12.6456 12.0682C12.6456 12.3894 12.5319 12.6325 12.3135 12.8062C12.095 12.9711 11.8153 13.0666 11.4658 13.0666H9.28972L9.29846 20.4291ZM18.7892 21.2973C18.5794 21.5057 18.326 21.6012 18.0201 21.6012C17.487 21.6012 17.1462 21.3841 16.9889 20.9587L16.3947 19.2396H12.698L12.1037 20.9587C11.9639 21.3841 11.6143 21.6012 11.0725 21.6012C10.8103 21.6012 10.5744 21.5317 10.3909 21.3928C10.2073 21.2539 10.0937 21.0629 10.0413 20.8111C10.0238 20.7416 10.0151 20.6635 10.0151 20.568C10.0063 20.4551 10.0325 20.3162 10.0762 20.1512C10.1199 19.9863 10.1724 19.8213 10.2336 19.665L13.2049 11.608C13.301 11.3476 13.4408 11.1652 13.6243 11.0524C13.8079 10.9395 14.0438 10.8874 14.3235 10.8874H14.874C15.1712 10.8874 15.4246 10.9482 15.6256 11.0697C15.8266 11.1913 15.9927 11.417 16.0975 11.7556L18.8678 19.6737C18.9552 19.9168 19.0164 20.1252 19.0601 20.3075C19.0776 20.4204 19.0951 20.5159 19.1038 20.5767C19.1125 20.8632 19.0077 21.0976 18.7892 21.2973ZM26.4709 21.1584C26.2437 21.332 25.964 21.4188 25.6145 21.4188H20.8167C20.4584 21.4188 20.17 21.3494 19.9515 21.2018C19.7243 21.0629 19.5844 20.8284 19.5145 20.5072C19.4883 20.3683 19.4708 20.212 19.4621 20.0471V12.0682C19.4621 11.7209 19.567 11.4344 19.7767 11.2173C19.9777 11.0089 20.2661 10.8961 20.6157 10.8961C20.9041 10.8961 21.1488 10.9742 21.3498 11.1305C21.5508 11.2868 21.6818 11.5038 21.7343 11.773C21.7605 11.8685 21.7605 11.9727 21.7605 12.0682V19.4393H25.597C25.9116 19.4393 26.165 19.5088 26.3748 19.639C26.5845 19.7779 26.7156 19.9689 26.768 20.212C26.7855 20.2815 26.7942 20.3509 26.803 20.4291C26.8117 20.7416 26.6981 20.9847 26.4709 21.1584ZM35.446 20.4725C35.446 20.8805 35.3324 21.167 35.0964 21.3407C34.8692 21.5143 34.5896 21.6012 34.2662 21.6012C34.0303 21.6012 33.838 21.5577 33.6894 21.4796C33.5409 21.3841 33.3923 21.2278 33.235 20.9847L30.587 16.7913L29.3286 18.0849L29.3373 20.4291C29.3286 20.785 29.2325 21.0715 29.0227 21.2799C28.813 21.497 28.5333 21.6012 28.175 21.6012C27.8866 21.6012 27.6419 21.523 27.4409 21.3667C27.2399 21.2105 27.1089 20.9934 27.0564 20.7243C27.0389 20.6288 27.0302 20.5246 27.0389 20.4204V12.0595C27.0389 11.7122 27.1438 11.4257 27.3536 11.2086C27.5633 11.0003 27.8429 10.8874 28.1925 10.8874C28.4809 10.8874 28.7256 10.9655 28.9266 11.1218C29.1276 11.2781 29.2587 11.4951 29.3111 11.7643C29.3286 11.8598 29.3373 11.964 29.3373 12.0595L29.3461 15.4889L32.9554 11.3996C33.1127 11.226 33.2612 11.0958 33.3923 11.0089C33.5321 10.9221 33.6807 10.8787 33.873 10.8787C34.1264 10.8787 34.3536 10.9482 34.5634 11.0871C34.7731 11.226 34.8954 11.4083 34.9479 11.6427C34.9479 11.6514 34.9566 11.6862 34.9654 11.7296C34.9654 11.7643 34.9654 11.799 34.9654 11.8251C34.9654 11.99 34.9304 12.1376 34.8605 12.2592C34.7906 12.3894 34.6944 12.511 34.5896 12.6412L32.23 15.1764L35.0265 19.5348L35.1139 19.665C35.3062 19.9602 35.4111 20.1773 35.446 20.3249C35.446 20.3336 35.4548 20.3596 35.4635 20.3943C35.446 20.4377 35.446 20.4551 35.446 20.4725Z" fill="currentColor"/>
<path d="M14.5772 13.4375L13.2227 17.5962H15.9056L14.6034 13.4375H14.5772Z" fill="currentColor"/>
</svg>
