<svg viewBox="0 0 21 17" fill="none" xmlns="http://www.w3.org/2000/svg">
<path d="M2.04167 16.3333C1.48021 16.3333 0.999566 16.1334 0.59974 15.7336C0.199913 15.3338 0 14.8531 0 14.2917V2.04167C0 1.48021 0.199913 0.999566 0.59974 0.59974C0.999566 0.199913 1.48021 0 2.04167 0H18.375C18.9365 0 19.4171 0.199913 19.8169 0.59974C20.2168 0.999566 20.4167 1.48021 20.4167 2.04167V14.2917C20.4167 14.8531 20.2168 15.3338 19.8169 15.7336C19.4171 16.1334 18.9365 16.3333 18.375 16.3333H2.04167ZM10.2083 9.1875L18.375 4.08333V2.04167L10.2083 7.14583L2.04167 2.04167V4.08333L10.2083 9.1875Z" fill="currentColor"/>
</svg>
