<svg viewBox="0 0 85 83" fill="none" xmlns="http://www.w3.org/2000/svg">
<path d="M21.6667 63.7L27.7333 69.875C28.1667 70.3083 28.6722 70.525 29.25 70.525C29.8278 70.525 30.3333 70.3083 30.7667 69.875C31.2 69.4417 31.4167 68.9181 31.4167 68.3042C31.4167 67.6903 31.2 67.1667 30.7667 66.7333L24.7 60.6667L30.875 54.4917C31.3083 54.0583 31.525 53.5528 31.525 52.975C31.525 52.3972 31.3083 51.8917 30.875 51.4583C30.4417 51.025 29.9361 50.8083 29.3583 50.8083C28.7806 50.8083 28.275 51.025 27.8417 51.4583L21.6667 57.6333L15.4917 51.4583C15.0583 51.025 14.5528 50.8083 13.975 50.8083C13.3972 50.8083 12.8917 51.025 12.4583 51.4583C12.025 51.8917 11.8083 52.3972 11.8083 52.975C11.8083 53.5528 12.025 54.0583 12.4583 54.4917L18.6333 60.6667L12.4583 66.8417C12.025 67.275 11.8083 67.7806 11.8083 68.3583C11.8083 68.9361 12.025 69.4417 12.4583 69.875C12.8917 70.3083 13.3972 70.525 13.975 70.525C14.5528 70.525 15.0583 70.3083 15.4917 69.875L21.6667 63.7ZM21.6667 82.3333C15.6722 82.3333 10.5625 80.2208 6.3375 75.9958C2.1125 71.7708 0 66.6611 0 60.6667C0 54.6722 2.1125 49.5625 6.3375 45.3375C10.5625 41.1125 15.6722 39 21.6667 39C27.6611 39 32.7708 41.1125 36.9958 45.3375C41.2208 49.5625 43.3333 54.6722 43.3333 60.6667C43.3333 66.6611 41.2208 71.7708 36.9958 75.9958C32.7708 80.2208 27.6611 82.3333 21.6667 82.3333ZM52.8667 50.2667C52 49.3278 51.0792 48.3708 50.1042 47.3958C49.1292 46.4208 48.1722 45.5 47.2333 44.6333C49.9778 42.9 52.1806 40.5889 53.8417 37.7C55.5028 34.8111 56.3333 31.6333 56.3333 28.1667C56.3333 22.75 54.4375 18.1458 50.6458 14.3542C46.8542 10.5625 42.25 8.66667 36.8333 8.66667C31.4167 8.66667 26.8125 10.5625 23.0208 14.3542C19.2292 18.1458 17.3333 22.75 17.3333 28.1667C17.3333 28.6 17.3514 29.0153 17.3875 29.4125C17.4236 29.8097 17.4778 30.225 17.55 30.6583C16.25 30.8028 14.8236 31.0917 13.2708 31.525C11.7181 31.9583 10.3278 32.4639 9.1 33.0417C8.95556 32.2472 8.84722 31.4528 8.775 30.6583C8.70278 29.8639 8.66667 29.0333 8.66667 28.1667C8.66667 20.2944 11.3931 13.6319 16.8458 8.17917C22.2986 2.72639 28.9611 0 36.8333 0C44.7056 0 51.3681 2.72639 56.8208 8.17917C62.2736 13.6319 65 20.2944 65 28.1667C65 31.2722 64.5125 34.2153 63.5375 36.9958C62.5625 39.7764 61.2083 42.3222 59.475 44.6333L83.6333 68.9C84.4278 69.6945 84.8431 70.6875 84.8792 71.8792C84.9153 73.0708 84.5 74.1 83.6333 74.9667C82.8389 75.7611 81.8278 76.1583 80.6 76.1583C79.3722 76.1583 78.3611 75.7611 77.5667 74.9667L52.8667 50.2667Z" fill="currentColor"/>
</svg>
