<svg viewBox="0 0 14 13" fill="none" xmlns="http://www.w3.org/2000/svg">
<mask id="mask0_81_44134" style="mask-type:alpha" maskUnits="userSpaceOnUse" x="0" y="0" width="14" height="13">
<rect x="0.679688" width="12.88" height="12.88" fill="currentColor"/>
</mask>
<g mask="url(#mask0_81_44134)">
<path d="M2.82812 9.66088V7.38005L8.83879 1.3828C8.93718 1.28441 9.05122 1.20839 9.18092 1.15472C9.31061 1.10105 9.44701 1.07422 9.59012 1.07422C9.73324 1.07422 9.87187 1.10105 10.006 1.15472C10.1402 1.20839 10.261 1.28889 10.3683 1.39622L11.1062 2.14755C11.2135 2.24594 11.2918 2.36222 11.341 2.49639C11.3902 2.63055 11.4148 2.76919 11.4148 2.9123C11.4148 3.04647 11.3902 3.1784 11.341 3.30809C11.2918 3.43779 11.2135 3.5563 11.1062 3.66364L5.10896 9.66088H2.82812ZM9.59012 3.65022L10.3415 2.89889L9.59012 2.14755L8.83879 2.89889L9.59012 3.65022Z" fill="currentColor"/>
</g>
</svg>
