<svg viewBox="0 0 24 24" fill="none" xmlns="http://www.w3.org/2000/svg">
<mask id="mask0_762_965" style="mask-type:alpha" maskUnits="userSpaceOnUse" x="0" y="0" width="24" height="24">
<rect width="24" height="24" fill="currentColor"/>
</mask>
<g mask="url(#mask0_762_965)">
<path d="M12 12C13.0833 12 14.2083 11.9125 15.375 11.7375C16.5417 11.5625 17.625 11.3167 18.625 11C18.9583 10.8667 19.2708 10.9083 19.5625 11.125C19.8542 11.3417 20 11.625 20 11.975V19.125C20 19.5417 19.8792 19.9208 19.6375 20.2625C19.3958 20.6042 19.0833 20.85 18.7 21C17.75 21.3167 16.6875 21.5625 15.5125 21.7375C14.3375 21.9125 13.1667 22 12 22C10.8333 22 9.6625 21.9125 8.4875 21.7375C7.3125 21.5625 6.25 21.3167 5.3 21C4.91667 20.85 4.60417 20.6042 4.3625 20.2625C4.12083 19.9208 4 19.5417 4 19.125V11.975C4 11.625 4.14583 11.3417 4.4375 11.125C4.72917 10.9083 5.04167 10.8667 5.375 11C6.375 11.3167 7.45833 11.5625 8.625 11.7375C9.79167 11.9125 10.9167 12 12 12ZM12 2C13.1 2 14.0417 2.39167 14.825 3.175C15.6083 3.95833 16 4.9 16 6C16 7.1 15.6083 8.04167 14.825 8.825C14.0417 9.60833 13.1 10 12 10C10.9 10 9.95833 9.60833 9.175 8.825C8.39167 8.04167 8 7.1 8 6C8 4.9 8.39167 3.95833 9.175 3.175C9.95833 2.39167 10.9 2 12 2Z" fill="currentColor" />
<path d="M12 12C13.0833 12 14.2083 11.9125 15.375 11.7375C16.5417 11.5625 17.625 11.3167 18.625 11C18.9583 10.8667 19.2708 10.9083 19.5625 11.125C19.8542 11.3417 20 11.625 20 11.975V19.125C20 19.5417 19.8792 19.9208 19.6375 20.2625C19.3958 20.6042 19.0833 20.85 18.7 21C17.75 21.3167 16.6875 21.5625 15.5125 21.7375C14.3375 21.9125 13.1667 22 12 22C10.8333 22 9.6625 21.9125 8.4875 21.7375C7.3125 21.5625 6.25 21.3167 5.3 21C4.91667 20.85 4.60417 20.6042 4.3625 20.2625C4.12083 19.9208 4 19.5417 4 19.125V11.975C4 11.625 4.14583 11.3417 4.4375 11.125C4.72917 10.9083 5.04167 10.8667 5.375 11C6.375 11.3167 7.45833 11.5625 8.625 11.7375C9.79167 11.9125 10.9167 12 12 12ZM12 2C13.1 2 14.0417 2.39167 14.825 3.175C15.6083 3.95833 16 4.9 16 6C16 7.1 15.6083 8.04167 14.825 8.825C14.0417 9.60833 13.1 10 12 10C10.9 10 9.95833 9.60833 9.175 8.825C8.39167 8.04167 8 7.1 8 6C8 4.9 8.39167 3.95833 9.175 3.175C9.95833 2.39167 10.9 2 12 2Z" fill="currentColor" />
</g>
</svg>
