<svg xmlns="http://www.w3.org/2000/svg" viewBox="0 0 36 36" fill="currentColor">
<path d="M3.91667 35.25C2.83958 35.25 1.91753 34.8665 1.15052 34.0995C0.383507 33.3325 0 32.4104 0 31.3333V3.91667C0 2.83958 0.383507 1.91753 1.15052 1.15052C1.91753 0.383507 2.83958 0 3.91667 0H31.3333C32.4104 0 33.3325 0.383507 34.0995 1.15052C34.8665 1.91753 35.25 2.83958 35.25 3.91667V31.3333C35.25 32.4104 34.8665 33.3325 34.0995 34.0995C33.3325 34.8665 32.4104 35.25 31.3333 35.25H3.91667ZM7.83333 27.4167H27.4167C27.8083 27.4167 28.1021 27.2372 28.2979 26.8781C28.4937 26.5191 28.4611 26.1764 28.2 25.85L22.8146 18.6531C22.6188 18.392 22.3576 18.2615 22.0312 18.2615C21.7049 18.2615 21.4438 18.392 21.2479 18.6531L16.1562 25.4583L12.5333 20.6115C12.3375 20.3503 12.0764 20.2198 11.75 20.2198C11.4236 20.2198 11.1625 20.3503 10.9667 20.6115L7.05 25.85C6.78889 26.1764 6.75625 26.5191 6.95208 26.8781C7.14792 27.2372 7.44167 27.4167 7.83333 27.4167ZM10.7708 13.7083C11.5868 13.7083 12.2804 13.4227 12.8516 12.8516C13.4227 12.2804 13.7083 11.5868 13.7083 10.7708C13.7083 9.95486 13.4227 9.26128 12.8516 8.6901C12.2804 8.11892 11.5868 7.83333 10.7708 7.83333C9.95486 7.83333 9.26128 8.11892 8.6901 8.6901C8.11892 9.26128 7.83333 9.95486 7.83333 10.7708C7.83333 11.5868 8.11892 12.2804 8.6901 12.8516C9.26128 13.4227 9.95486 13.7083 10.7708 13.7083Z"/>
</svg>
