<svg viewBox="0 0 172 19" fill="none" xmlns="http://www.w3.org/2000/svg">
<path d="M0.1 18.11V13.908H5.49C6.48 13.908 7.228 13.314 7.272 12.346V12.17C7.228 11.202 6.546 10.674 5.534 10.674H5.38C3.114 10.674 1.222 9.552 0.43 7.572C0.21 7.022 0.1 6.406 0.1 5.768V5.702C0.1 2.82 2.454 0.465999 5.336 0.465999H9.23C10.066 0.465999 10.77 1.17 10.77 2.006L10.814 4.448H5.424C4.434 4.448 3.598 4.712 3.554 5.702V5.878C3.598 6.846 4.39 7.264 5.38 7.264H5.534C8.13 7.264 9.78 8.474 10.484 10.476C10.682 11.048 10.814 11.642 10.814 12.28C10.814 12.302 10.814 12.302 10.792 12.324H10.814C10.902 15.228 8.438 18.11 5.556 18.11H0.1ZM20.9321 0.4C25.7941 0.4 29.7321 4.338 29.7321 9.2C29.7321 14.062 25.7941 18 20.9321 18C16.0701 18 12.1321 14.062 12.1321 9.2C12.1321 4.338 16.0701 0.4 20.9321 0.4ZM20.9321 13.798C23.4621 13.798 25.5301 11.752 25.5301 9.2C25.5301 6.67 23.4621 4.602 20.9321 4.602C18.3801 4.602 16.3341 6.67 16.3341 9.2C16.3341 11.752 18.3801 13.798 20.9321 13.798ZM31.6107 18V0.4H34.2727C35.1307 0.4 35.8127 1.082 35.8127 1.918V13.798H41.9287V18H31.6107ZM43.2432 18L50.9872 1.39L51.0092 1.368C51.2292 0.818 51.7792 0.421999 52.4172 0.421999C53.0552 0.421999 53.5832 0.795999 53.8252 1.324L61.6132 17.978L61.5692 18H57.2572L55.5632 14.37H49.2932L47.5992 18H43.2432ZM51.1412 10.432H53.7152L52.4392 7.638L51.1412 10.432ZM62.9152 18V10.586C62.9152 9.75 63.6192 9.046 64.4552 9.046H69.4712C70.7472 9.046 71.7592 8.012 71.6932 6.736C71.6492 5.526 70.6152 4.602 69.4272 4.602H62.9152V0.421999H69.4052C72.9252 0.421999 75.9172 3.282 75.8952 6.802C75.8952 9.354 74.3992 11.532 72.2212 12.544L77.6772 18H71.8692L67.0952 13.226V18H62.9152ZM86.3563 18V0.4H90.1183C90.2723 0.4 90.4263 0.465999 90.5363 0.598L95.2883 6.12L100.04 0.598C100.15 0.465999 100.304 0.4 100.48 0.4H104.22V18H100.04V7L98.0603 9.332L96.4543 11.18C95.8383 11.884 94.7383 11.884 94.1223 11.18L90.5363 7V18H86.3563ZM105.53 18L113.274 1.39L113.296 1.368C113.516 0.818 114.066 0.421999 114.704 0.421999C115.342 0.421999 115.87 0.795999 116.112 1.324L123.9 17.978L123.856 18H119.544L117.85 14.37H111.58L109.886 18H105.53ZM113.428 10.432H116.002L114.726 7.638L113.428 10.432ZM128.563 18V4.58H123.019V0.4H136.747C137.605 0.4 138.287 1.104 138.287 1.94V4.58H132.743V18H128.563ZM147.627 18C143.007 18 139.047 14.172 139.047 9.574C139.047 4.536 142.875 0.4 147.913 0.4C150.377 0.4 152.511 1.324 154.051 2.996L152.049 4.998C151.587 5.46 150.839 5.614 150.223 5.152C149.453 4.844 148.683 4.536 147.759 4.536C145.317 4.536 143.337 6.516 143.337 8.98C143.337 11.51 145.163 13.886 147.913 13.886C148.683 13.886 149.607 13.556 150.223 13.248C150.839 12.786 151.587 12.94 152.049 13.402L154.051 15.404C152.511 17.098 150.223 18 147.627 18ZM155.926 18V0.4H158.588C159.446 0.4 160.128 1.082 160.128 1.94V7.11H166.948V0.4H169.61C170.446 0.4 171.15 1.082 171.15 1.94V18H166.948V11.29H160.128V18H155.926Z" fill="currentColor"/>
</svg>
